<?xml version="1.0" encoding="UTF-8" standalone="no"?>
<svg
   xmlns:dc="http://purl.org/dc/elements/1.1/"
   xmlns:cc="http://creativecommons.org/ns#"
   xmlns:rdf="http://www.w3.org/1999/02/22-rdf-syntax-ns#"
   xmlns:svg="http://www.w3.org/2000/svg"
   xmlns="http://www.w3.org/2000/svg"
   xmlns:sodipodi="http://sodipodi.sourceforge.net/DTD/sodipodi-0.dtd"
   xmlns:inkscape="http://www.inkscape.org/namespaces/inkscape"
   width="35.546448mm"
   height="40.832546mm"
   version="1.1"
   viewBox="0 0 35.546409 40.832893"
   id="svg10"
   sodipodi:docname="logo_notext.svg"
   inkscape:version="0.92.3 (2405546, 2018-03-11)">
  <defs
     id="defs14" />
  <sodipodi:namedview
     pagecolor="#ffffff"
     bordercolor="#666666"
     borderopacity="1"
     objecttolerance="10"
     gridtolerance="10"
     guidetolerance="10"
     inkscape:pageopacity="0"
     inkscape:pageshadow="2"
     inkscape:window-width="1533"
     inkscape:window-height="849"
     id="namedview12"
     showgrid="false"
     inkscape:zoom="0.56739428"
     inkscape:cx="-245.86724"
     inkscape:cy="77.163199"
     inkscape:window-x="67"
     inkscape:window-y="27"
     inkscape:window-maximized="1"
     inkscape:current-layer="svg10"
     fit-margin-top="0"
     fit-margin-left="0"
     fit-margin-right="0"
     fit-margin-bottom="0" />
  <metadata
     id="metadata2">
    <rdf:RDF>
      <cc:Work
         rdf:about="">
        <dc:format>image/svg+xml</dc:format>
        <dc:type
           rdf:resource="http://purl.org/dc/dcmitype/StillImage" />
        <dc:title></dc:title>
      </cc:Work>
    </rdf:RDF>
  </metadata>
  <path
     style="fill:none;stroke:#00447f;stroke-width:0.69999999;stroke-opacity:0.97254998"
     inkscape:connector-curvature="0"
     id="path4"
     d="m 33.287881,11.63466 c 0.52434,-0.43817 0.97544,-1.0332 1.049,-1.7333003 0.06893,-0.65613 -0.24493,-1.2967 -0.69932,-1.7537 -0.73929,-0.74355 -1.7909,-1.1474 -2.8346,-1.1556 -0.85216,-0.00684 -1.7121,0.31888 -2.3082,0.93635 -0.23244,0.24076 -0.453,0.51313 -0.53271,0.84691 -0.14327,0.59989 -0.05609,1.2294003 0.09719,1.8171003 0.24741,0.94854 0.644,1.8714 1.2401,2.6514 0.31241,0.40879 0.67638,0.81712 1.1656,1.0098 0.34548,0.13604 0.73234,0.06786 1.0735,-0.04156 0.42445,-0.13608 0.83976,-0.32055 1.199,-0.58245 0.44983,-0.32797 0.80686,-0.77038 1.0935,-1.2432 0.20347,-0.33558 0.37342,-0.70254 0.40355,-1.101 0.05239,-0.69283 0.0189,-1.3980003 -0.14508,-2.0733003 -0.09733,-0.40076 -0.22405,-0.81772 -0.51386,-1.1245 -0.1417,-0.15001 -0.35062,-0.22138 -0.5574,-0.19377 -0.49092,0.065511 -0.9551,0.25642 -1.4037,0.45695 -1.1679,0.52205 -2.2973,1.1363 -3.3531,1.8576003 -0.47237,0.32272 -0.93835,0.6606 -1.3515,1.0601 -0.19133,0.18502 -0.27308,0.45563 -0.25731,0.71726 0.03082,0.51135 0.25998,0.98647 0.51972,1.4192 0.36275,0.60438 0.91385,1.0907 1.5607,1.3733 1.0378,0.45331 2.2329,0.44554 3.3081,0.13595 0.97657,-0.28119 1.9143,-0.80988 2.5406,-1.6254 0.48893,-0.63671 0.72703,-1.478 0.56121,-2.2736 -0.19349,-0.92835 -0.823,-1.7061003 -1.5554,-2.2775003 -0.96449,-0.75243 -2.1361,-1.2602 -3.3563,-1.38 -0.81148,-0.079689 -1.6841,0.036667 -2.3595,0.52781 -0.49882,0.36277 -0.78987,0.9377 -0.93714,1.5279 -0.16933,0.6786303 -0.12094,1.4075003 0.1406,2.0575003 0.34411,0.85522 0.94621,1.5727 1.5718,2.2338 0.16438,0.1737 0.30535,0.36585 0.44323,0.56166 0.17775,0.25243 0.33923,0.55995 0.63382,0.68099 0.28528,0.11722 0.60484,0.03794 0.88201,-0.06229 0.64352,-0.23278 1.2361,-0.5988 1.7542,-1.0414 0.33142,-0.28308 0.68222,-0.57864 0.86523,-0.98052 0.11922,-0.26181 0.09021,-0.56052 0.07634,-0.83932 -0.0065,-0.12962 -0.01384,-0.25929 -0.01384,-0.38912 z m -22.695,-9.1560003 c -1.2597996,-0.011733 -2.5884996,-0.43717 -3.7876996,-0.00489 -1.1641,0.41954 -1.9677,1.4469 -2.6541,2.4208 -0.60469,0.85801 -1.3059,1.6625 -1.7836,2.5962 -0.82403,1.6109 -1.38400002,3.3535003 -1.74620002,5.1204003 -0.20531,1.0018 -0.35627,2.0352 -0.1152,3.0618 0.48739,2.0755 1.49120002,4.1377 3.26910002,5.417 0.80472,0.57906 1.7767,0.82043 2.71,1.1204 1.2403,0.39865 2.1022,1.6299 3.4527,1.7237 2.5098996,0.17424 5.0406996,0.20166 7.5428996,-0.05212 1.4576,-0.14786 2.9658,-0.25801 4.3215,-0.85959 0.85871,-0.38106 1.0737,-1.3993 1.1552,-2.2392 0.23831,-2.4565 -0.56575,-4.9076 -0.33948,-7.349 0.16313,-1.7601 -0.62211,-3.4309 -1.5792,-4.8579003 -1.2519,-1.8666 -2.6919,-3.5922 -3.8904,-5.5043 -0.7076,-1.1288 -2.0512,-1.6152 -3.3254,-1.7567 -2.3434,-0.2602 -4.8024996,0.22406 -6.7533996,1.5952 -2.3889,1.6791 -3.9146,4.2546 -5.215,6.8107 -0.81466,1.6012003 -1.60910002,3.3209003 -1.49420002,5.1719003 0.10182,1.6411 1.25820002,2.9844 2.49130002,3.9584 0.97868,0.77303 2.0849,1.3598 3.1244,2.0443 1.1578,0.76237 2.5021,1.2974 3.9102,1.2609 2.4417996,-0.06326 4.8272996,-0.82796 6.9803996,-1.9443 2.4209,-1.2552 4.6923,-2.9865 6.1248,-5.3476 0.67121,-1.1063 1.0838,-2.3628 1.2474,-3.6343 0.21476,-1.6698003 -0.4079,-3.3537003 -1.3684,-4.6953003 -1.9364,-2.7047 -5.1762,-4.4017 -8.4771,-4.5678 -1.4226,-0.071574 -2.944,-0.00978 -4.1984,0.68242 -0.7812996,0.43107 -1.4867996,0.9809 -2.2276996,1.4775 -1.4694,0.98481 -2.8193,2.2525 -3.5346,3.903 -0.72925,1.6827 -1.1442,3.4777003 -1.6319,5.2393003 -0.32714,1.1816 -0.44248,2.4901 0.0968,3.6369 0.65881,1.4009 2.0313,2.3026 3.3937,2.91 2.4883,1.1093 5.2108996,1.6705 7.9244996,1.7496 2.1777,0.06346 4.4284,-0.15893 6.4122,-1.1474 0.80342,-0.4003 1.4991,-1.123 1.5966,-2.0538 0.16448,-1.5709 -0.50732,-3.1525 -0.10182,-4.7071 0.25016,-0.95907 0.98314,-1.9613 0.6625,-2.8984 -0.10755,-0.31434 -0.51802,0.44514 -0.58299,0.63128 -0.47014,1.3469 -0.42378,2.8014 -0.47605,4.2083 -0.0486,1.3072 0.18672,2.6916 -0.2903,3.9203 -0.2704,0.69649 -0.62632,1.3577 -0.91001,2.0525 -1.0413,2.5504 -1.2032,5.3549 -2.1994,7.9175 -0.80176,2.0624 -2.3194,3.7529 -4.0419,5.141 -0.82635,0.66595 -1.639,1.3541 -2.5666,1.8835 -2.0738996,1.1838 -4.2984996,2.0708 -6.5629996,2.7976 -0.91135,0.29251 -2.0302,1.3635 -2.7743,0.75646 -0.37757,-0.30801 0.55354,-0.64175 0.8772,-0.7246 1.8988,-0.48608 3.8672,-0.23908 5.7991,-0.20845 1.5566996,0.02464 3.1735996,-0.1823 4.5224996,-1.0439 2.1202,-1.3543 3.3324,-3.7016 4.088,-6.0269 0.71052,-2.1868 1.2511,-4.4325 1.5948,-6.7024 0.45078,-2.977 -0.23934,-6.0515 0.61458,-8.9828 0.17589,-0.60379 0.3153,-1.1948 0.36561,-1.855 0.06326,-0.82973 0.36848,-1.6179 0.53611,-2.4305 0.1885,-0.9138 0.53873,-1.7921 0.68012,-2.7128003 0.12729,-0.82878 -0.77602,0.15834 -1.0629,-0.088783 -0.23295,-0.20062 -0.104,-1.035 0.0098,-0.9976 0.48056,0.15864 1.6924,0.77554 1.4805,0.31834 -0.40432,-0.87221 -0.65467,-1.814 -0.96069,-2.7261 -0.19911,-0.5934 -0.59674,-2.4082 -0.59156,-1.7828 0.03461,4.1764 0.24114,8.3609003 -0.04556,12.5320003 -0.05075,0.73837 -0.2678,1.4537 -0.33728,2.1909 -0.0791,0.83901 0.64516,1.433 1.1881,1.9565 0.51355,0.49514 1.2693,1.1348 1.0128,1.9017 -0.68482,2.0472 -1.662,3.9878 -2.7269,5.8601 -1.8583,3.2671 -3.912,6.4821 -6.5871,9.1381 -1.0876,1.0799 -2.1548,2.4978 -3.6808996,2.7591 -0.90926,0.15568 -1.8212,-0.17054 -2.6551,-0.4976 -1.4686,-0.57599 -3.1708,-1.0024 -4.1715,-2.2303 -0.48506,-0.59524 -0.54658,0.49664 -0.55336,0.83993 -0.011538,0.58328 -0.37268,1.4961 0.16177,1.7474 0.4075,0.19159 0.98485,-0.26218 1.4532,-0.37101 0.97187,-0.22584 1.9344,-0.48249 2.9003,-0.73926 2.8037,-0.74534 5.7675996,-0.74038 8.5104996,-1.7706 1.3257,-0.49792 2.1973,-1.6883 2.8632,-2.8818 0.86054,-1.5424 1.601,-3.1423 2.5657,-4.6366 1.343,-2.0804 1.7848,-4.5849 2.0341,-7.0066 0.4051,-3.9342 -0.16732,-7.9559 0.60017,-11.836 0.27502,-1.3906003 -0.03521,-2.8258003 -0.61286,-4.0990003 -0.95067,-2.0953 -2.3665,-3.9714 -4.0449,-5.528 -1.183,-1.09719999 -2.9258,-1.24439999 -4.446,-0.94803999 -1.4042,0.2737 -2.7666,0.78672999 -3.9537996,1.60839999 -1.1194,0.77474 -2.2677,1.507 -3.2943,2.4136 -0.9014,0.79605 -1.8316,1.5888 -2.4396,2.6515 -1.4437,2.5235 -1.363,5.6973003 -0.29416,8.3363003 0.63132,1.5587 1.5944,3.0395 3.0271,3.9823 2.1504,1.4151 4.5907996,2.3549 7.0817996,2.9543 1.9239,0.46288 3.9351,0.89417 5.9051,0.55678 0.50606,-0.08663 1.5883,-0.2715 1.2365,-0.9701 -0.50425,-1.0015 -1.5386,-1.6854 -1.8143,-2.8236 -0.14205,-0.58648 0.30945,-0.99847 0.80588,-1.2744 0.52074,-0.28947 1.2101,-0.40012 1.5551,-0.89987 0.1608,-0.23289 0.32829,-0.9084 -0.13535,-0.41177 -0.96933,1.0383 -2.3505,1.607 -3.2532,2.714 0,0 -0.06532,0.09514 -0.06532,0.09514" />
</svg>
